<svg xmlns="http://www.w3.org/2000/svg" xmlns:xlink="http://www.w3.org/1999/xlink" width="40" zoomAndPan="magnify" viewBox="0 0 30 30.000001" height="40" preserveAspectRatio="xMidYMid meet" version="1.0"><defs><clipPath id="9905ba76b8"><path d="M 3.386719 6.707031 L 26.613281 6.707031 L 26.613281 22.675781 L 3.386719 22.675781 Z M 3.386719 6.707031 " clip-rule="nonzero"/></clipPath></defs><g clip-path="url(#9905ba76b8)"><path fill="#ffffff" d="M 11.46875 11.222656 C 11.46875 11.070312 11.488281 10.785156 11.851562 10.574219 C 12.175781 10.382812 12.824219 10.238281 13.222656 10.457031 L 19.050781 13.628906 C 19.351562 13.796875 19.671875 14.160156 19.667969 14.550781 C 19.664062 14.808594 19.527344 15.035156 19.296875 15.160156 L 19.28125 15.167969 L 13.210938 18.175781 C 13.074219 18.246094 12.914062 18.273438 12.742188 18.273438 C 12.398438 18.273438 12.050781 18.164062 11.839844 18.039062 C 11.488281 17.828125 11.46875 17.546875 11.46875 17.398438 Z M 8.15625 22.320312 L 21.722656 22.320312 C 24.359375 22.320312 26.613281 20.027344 26.613281 17.386719 L 26.613281 11.074219 C 26.613281 8.4375 24.359375 6.710938 21.722656 6.710938 L 8.15625 6.710938 C 5.519531 6.710938 3.386719 8.4375 3.386719 11.074219 L 3.386719 17.386719 C 3.386719 20.027344 5.519531 22.320312 8.15625 22.320312 " fill-opacity="1" fill-rule="nonzero"/><path fill="#ffffff" d="M 11.46875 11.222656 C 11.46875 11.070312 11.488281 10.785156 11.851562 10.574219 C 12.175781 10.382812 12.824219 10.238281 13.222656 10.457031 L 19.050781 13.628906 C 19.351562 13.796875 19.671875 14.160156 19.667969 14.550781 C 19.664062 14.808594 19.527344 15.035156 19.296875 15.160156 L 19.28125 15.167969 L 13.210938 18.175781 C 13.074219 18.246094 12.914062 18.273438 12.742188 18.273438 C 12.398438 18.273438 12.050781 18.164062 11.839844 18.039062 C 11.488281 17.828125 11.46875 17.546875 11.46875 17.398438 Z M 8.15625 22.320312 L 21.722656 22.320312 C 24.359375 22.320312 26.613281 20.027344 26.613281 17.386719 L 26.613281 11.074219 C 26.613281 8.4375 24.359375 6.710938 21.722656 6.710938 L 8.15625 6.710938 C 5.519531 6.710938 3.386719 8.4375 3.386719 11.074219 L 3.386719 17.386719 C 3.386719 20.027344 5.519531 22.320312 8.15625 22.320312 " fill-opacity="1" fill-rule="nonzero"/></g></svg>