<svg xmlns="http://www.w3.org/2000/svg" xmlns:xlink="http://www.w3.org/1999/xlink" width="40" zoomAndPan="magnify" viewBox="0 0 30 30.000001" height="40" preserveAspectRatio="xMidYMid meet" version="1.0"><defs><clipPath id="b3080628b0"><path d="M 3.386719 2.902344 L 26.613281 2.902344 L 26.613281 26.128906 L 3.386719 26.128906 Z M 3.386719 2.902344 " clip-rule="nonzero"/></clipPath></defs><g clip-path="url(#b3080628b0)"><path fill="#ffffff" d="M 10.1875 2.984375 C 8.953125 3.042969 8.109375 3.238281 7.371094 3.527344 C 6.609375 3.824219 5.960938 4.222656 5.316406 4.871094 C 4.671875 5.515625 4.277344 6.164062 3.984375 6.929688 C 3.699219 7.667969 3.503906 8.511719 3.449219 9.75 C 3.394531 10.984375 3.382812 11.378906 3.386719 14.535156 C 3.394531 17.683594 3.40625 18.082031 3.46875 19.320312 C 3.527344 20.554688 3.722656 21.398438 4.011719 22.136719 C 4.308594 22.898438 4.707031 23.546875 5.355469 24.1875 C 6 24.832031 6.648438 25.230469 7.414062 25.523438 C 8.152344 25.808594 8.996094 26.003906 10.230469 26.058594 C 11.46875 26.113281 11.863281 26.125 15.015625 26.117188 C 18.167969 26.113281 18.5625 26.097656 19.800781 26.039062 C 21.039062 25.980469 21.878906 25.78125 22.617188 25.496094 C 23.382812 25.195312 24.027344 24.796875 24.671875 24.152344 C 25.316406 23.503906 25.710938 22.859375 26.007812 22.09375 C 26.292969 21.355469 26.488281 20.511719 26.539062 19.277344 C 26.59375 18.039062 26.609375 17.640625 26.601562 14.488281 C 26.597656 11.339844 26.582031 10.941406 26.523438 9.703125 C 26.464844 8.46875 26.265625 7.625 25.976562 6.886719 C 25.679688 6.125 25.28125 5.480469 24.636719 4.835938 C 23.988281 4.191406 23.34375 3.792969 22.578125 3.5 C 21.839844 3.214844 20.992188 3.019531 19.757812 2.964844 C 18.519531 2.910156 18.125 2.898438 14.972656 2.90625 C 11.820312 2.910156 11.425781 2.925781 10.1875 2.984375 M 10.324219 23.96875 C 9.191406 23.917969 8.578125 23.730469 8.167969 23.574219 C 7.625 23.363281 7.238281 23.109375 6.828125 22.707031 C 6.421875 22.300781 6.171875 21.914062 5.960938 21.375 C 5.800781 20.964844 5.609375 20.351562 5.554688 19.21875 C 5.496094 17.996094 5.484375 17.628906 5.480469 14.527344 C 5.472656 11.429688 5.484375 11.0625 5.539062 9.839844 C 5.585938 8.707031 5.773438 8.09375 5.933594 7.683594 C 6.144531 7.140625 6.394531 6.753906 6.796875 6.347656 C 7.203125 5.941406 7.589844 5.6875 8.132812 5.476562 C 8.539062 5.316406 9.15625 5.125 10.285156 5.074219 C 11.511719 5.015625 11.875 5.003906 14.976562 4.996094 C 18.074219 4.988281 18.441406 5 19.667969 5.054688 C 20.796875 5.105469 21.414062 5.292969 21.820312 5.449219 C 22.363281 5.660156 22.753906 5.910156 23.160156 6.316406 C 23.566406 6.722656 23.820312 7.105469 24.03125 7.648438 C 24.191406 8.058594 24.378906 8.671875 24.433594 9.800781 C 24.492188 11.027344 24.503906 11.394531 24.511719 14.492188 C 24.515625 17.589844 24.503906 17.957031 24.449219 19.183594 C 24.402344 20.3125 24.214844 20.929688 24.054688 21.339844 C 23.847656 21.878906 23.59375 22.265625 23.191406 22.675781 C 22.785156 23.078125 22.398438 23.332031 21.855469 23.546875 C 21.449219 23.703125 20.832031 23.894531 19.703125 23.949219 C 18.480469 24.007812 18.113281 24.019531 15.011719 24.023438 C 11.914062 24.03125 11.546875 24.019531 10.320312 23.964844 M 19.785156 8.304688 C 19.789062 9.074219 20.414062 9.699219 21.179688 9.695312 C 21.949219 9.695312 22.574219 9.070312 22.570312 8.300781 C 22.570312 7.53125 21.945312 6.910156 21.175781 6.910156 C 20.40625 6.910156 19.785156 7.539062 19.785156 8.304688 M 9.035156 14.523438 C 9.039062 17.816406 11.714844 20.476562 15.003906 20.472656 C 18.296875 20.464844 20.960938 17.792969 20.953125 14.5 C 20.949219 11.207031 18.273438 8.546875 14.984375 8.550781 C 11.691406 8.558594 9.027344 11.230469 9.035156 14.523438 M 11.125 14.519531 C 11.121094 12.382812 12.851562 10.644531 14.988281 10.640625 C 17.125 10.636719 18.859375 12.367188 18.863281 14.503906 C 18.867188 16.640625 17.140625 18.375 15.003906 18.378906 C 12.867188 18.382812 11.128906 16.65625 11.125 14.519531 " fill-opacity="1" fill-rule="nonzero"/></g></svg>